<svg version="1" xmlns="http://www.w3.org/2000/svg" width="341.333" height="341.333" viewBox="0 0 256.000000 256.000000"><path d="M49.6 39.8c-3.9.7-7.5 1.4-8.1 1.5C23.2 46.4 9.5 60 6 76.7c-3.7 17.4-.3 32.3 9.9 43.1 7.7 8.2 15.8 12.7 35.6 19.9C74.2 148 85 157 85 167.8c0 8-4.5 15-11.5 18.2-5.7 2.5-8.2 2.9-17.1 3-7.3 0-10.5-.2-17.5-1.3-3.8-.6-16.3-5-16.7-5.9-.2-.5-1-.8-1.7-.8-.8 0-2.9-.9-4.8-2-3.3-1.9-3.5-2-4.2-.3-.4 1-2.7 7.3-5 14-3.3 9.2-4.1 12.4-3.2 13.1C7.1 208.9 28.8 216 37 217c5.3.6 31.8.5 37-.2 23-3 39.5-16.3 44.1-35.8 1.5-6.7 1.6-21.9 0-28-2-7.7-6.4-15.1-12.6-21.5-6.8-7-14.7-11.7-28.5-17-24.6-9.5-28.4-11.4-32.8-16.4-4.3-4.7-5.4-7.9-4.8-13.4 1.4-11.5 8.7-16.5 25.2-17.2 9.4-.4 19.7 1.6 29.4 5.8l7.8 3.4 4.9-13.1 5-13.1-4.3-2.2c-4.4-2.3-17.6-6.9-22.3-7.8-11.4-2.1-26.2-2.4-35.5-.7zM159.4 56.7l.1 14.8 29 .5 29 .5-.1 46c0 33.7-.4 47.2-1.3 50.4-3.6 12.5-11.9 18.2-26.8 18.4-10 .1-17.1-2.3-29.6-10.1-2.2-1.3-4.1-2.2-4.3-1.9-.2.2-3.5 6.5-7.3 14l-6.8 13.6 3.9 2.6c15.4 10.2 22.3 12 45.8 12 18.7 0 23.3-.8 32.5-5.4 15.6-7.9 25.5-20.7 28.1-36.2.4-2.4.9-33.5 1.1-69.2l.4-64.7h-93.9l.2 14.7z"/></svg>